<svg width="26" height="26" viewBox="0 0 26 26" fill="none" xmlns="http://www.w3.org/2000/svg">
<path d="M11.9817 25.524C11.7009 25.499 11.4208 25.4642 11.1417 25.4205V16.6142H7.94188V12.9716H11.1417V10.1953C11.1417 7.03652 13.0233 5.29193 15.9021 5.29193C16.8471 5.30511 17.7899 5.38751 18.7228 5.5385V8.63974H17.1338C15.5684 8.63974 15.0802 9.61121 15.0802 10.6079V12.9716H18.5754L18.0165 16.6142H15.0802V25.4205C14.8012 25.4642 14.5211 25.499 14.2404 25.524C20.6713 24.9529 25.7133 19.5511 25.7133 12.9717C25.7133 6.01167 20.071 0.369446 13.111 0.369446C6.15103 0.369446 0.508789 6.01167 0.508789 12.9717C0.508789 19.5511 5.5508 24.9529 11.9817 25.524Z" fill="#1877F2"/>
</svg>
